# Blender v2.72 (sub 0) OBJ File: ''
# www.blender.org
o sponza_382
v 1380.603271 -115.979240 674.756775
v -1504.468262 -115.979240 674.756775
v -1504.468262 -115.978943 -782.520325
v -1504.468262 1271.036987 674.757019
v 1380.603394 1271.036987 674.757019
v 1380.603271 -115.978943 -782.520325
v 1380.603394 1271.037231 -782.520081
v -1504.468262 1271.037231 -782.520081
vt 7.212700 -0.000000
vt -0.000000 0.000000
vt 7.212700 3.558800
vt -0.000000 3.558800
vt -3.643200 0.000000
vt -3.643200 3.558800
vt -10.855900 0.000000
vt -10.855900 3.558800
vt -14.499100 0.000000
vt -14.499100 3.558800
vn 0.000000 -0.000000 1.000000
vn 1.000000 0.000000 -0.000000
vn 0.000000 0.000000 -1.000000
vn -1.000000 0.000000 0.000000
s off
f 2/1/1 1/2/1 4/3/1
f 5/4/2 1/2/2 6/5/2
f 7/6/3 6/5/3 3/7/3
f 8/8/4 3/7/4 2/9/4
f 4/3/1 1/2/1 5/4/1
f 7/6/2 5/4/2 6/5/2
f 8/8/3 7/6/3 3/7/3
f 4/10/4 8/8/4 2/9/4
